<svg width="156" height="142" viewBox="0 0 156 142" fill="none" xmlns="http://www.w3.org/2000/svg">
<path d="M88.0183 3.09344C102.56 6.20756 116.557 12.5001 129.469 21.954C142.415 31.5019 154.218 44.3394 155.196 58.137C156.114 72.0628 146.302 86.9144 137.642 99.963C128.983 113.012 121.664 124.189 111.483 131.3C101.395 138.377 88.4435 141.388 75.7051 141.768C63.0266 142.019 50.3386 139.614 39.7685 133.671C29.1044 127.762 20.4298 118.255 13.3268 107.219C6.22388 96.1827 0.692487 83.6168 0.68869 70.7416C0.778862 57.8322 6.2429 44.776 14.2704 32.9152C22.2978 21.0543 32.6666 10.3633 45.5231 5.04537C58.2856 -0.238327 73.442 -0.114643 88.0183 3.09344Z" fill="#5C6283" fill-opacity="0.2"/>
</svg>
