<svg xmlns="http://www.w3.org/2000/svg" width="16" height="16" viewBox="0 0 16 16" fill="none">
  <path d="M2.146 2.85399C2.09951 2.8075 2.06264 2.75231 2.03748 2.69157C2.01232 2.63083 1.99937 2.56573 1.99937 2.49999C1.99937 2.43425 2.01232 2.36915 2.03748 2.30841C2.06264 2.24767 2.09951 2.19248 2.146 2.14599C2.19249 2.0995 2.24768 2.06263 2.30842 2.03747C2.36916 2.01231 2.43426 1.99936 2.5 1.99936C2.56574 1.99936 2.63084 2.01231 2.69158 2.03747C2.75232 2.06263 2.80751 2.0995 2.854 2.14599L8 7.29299L13.146 2.14599C13.1925 2.0995 13.2477 2.06263 13.3084 2.03747C13.3692 2.01231 13.4343 1.99936 13.5 1.99936C13.5657 1.99936 13.6308 2.01231 13.6916 2.03747C13.7523 2.06263 13.8075 2.0995 13.854 2.14599C13.9005 2.19248 13.9374 2.24767 13.9625 2.30841C13.9877 2.36915 14.0006 2.43425 14.0006 2.49999C14.0006 2.56573 13.9877 2.63083 13.9625 2.69157C13.9374 2.75231 13.9005 2.8075 13.854 2.85399L8.707 7.99999L13.854 13.146C13.9005 13.1925 13.9374 13.2477 13.9625 13.3084C13.9877 13.3691 14.0006 13.4342 14.0006 13.5C14.0006 13.5657 13.9877 13.6308 13.9625 13.6916C13.9374 13.7523 13.9005 13.8075 13.854 13.854C13.8075 13.9005 13.7523 13.9374 13.6916 13.9625C13.6308 13.9877 13.5657 14.0006 13.5 14.0006C13.4343 14.0006 13.3692 13.9877 13.3084 13.9625C13.2477 13.9374 13.1925 13.9005 13.146 13.854L8 8.70699L2.854 13.854C2.80751 13.9005 2.75232 13.9374 2.69158 13.9625C2.63084 13.9877 2.56574 14.0006 2.5 14.0006C2.43426 14.0006 2.36916 13.9877 2.30842 13.9625C2.24768 13.9374 2.19249 13.9005 2.146 13.854C2.09951 13.8075 2.06264 13.7523 2.03748 13.6916C2.01232 13.6308 1.99937 13.5657 1.99937 13.5C1.99937 13.4342 2.01232 13.3691 2.03748 13.3084C2.06264 13.2477 2.09951 13.1925 2.146 13.146L7.293 7.99999L2.146 2.85399Z" fill="white"/>
</svg>