                        <svg xmlns="http://www.w3.org/2000/svg" width="26" height="26" viewBox="0 0 26 26" fill="none">
                            <path d="M3.43525 13.1024V12.8375C5.06838 12.6717 5.86788 11.8381 5.86788 10.2375V7.31737C5.86788 5.53962 6.50163 4.81812 8.06813 4.81812H8.51175V3.25H7.90075C5.28125 3.25 4.04625 4.48338 4.04625 7.072V9.5485C4.04625 11.3262 3.43525 11.9145 1.625 11.9145V14.0254C3.43525 14.0254 4.04625 14.6136 4.04625 16.3914V18.8679C4.04625 21.4565 5.27962 22.6899 7.90075 22.6899H8.51175V21.1234H8.06813C6.50163 21.1234 5.86788 20.4019 5.86788 18.6241V15.7024C5.86788 14.1034 5.06838 13.2697 3.43525 13.1024ZM22.5647 12.8375V13.1024C20.9316 13.2697 20.1321 14.1034 20.1321 15.7024V18.6241C20.1321 20.4019 19.4984 21.1234 17.9319 21.1234H17.4882V22.6899H18.0992C20.7204 22.6899 21.9538 21.4565 21.9538 18.8679V16.3914C21.9538 14.6136 22.5648 14.0254 24.375 14.0254V11.9145C22.5648 11.9145 21.9538 11.3262 21.9538 9.5485V7.072C21.9538 4.48338 20.7188 3.25 18.0992 3.25H17.4882V4.8165H17.9319C19.4984 4.8165 20.1321 5.538 20.1321 7.31575V10.2375C20.1321 11.8365 20.9316 12.6701 22.5647 12.8375Z" fill="#606F9F"/>
                        </svg>