                        <svg xmlns="http://www.w3.org/2000/svg" width="26" height="26" viewBox="0 0 26 26" fill="none">
                            <path d="M0.877489 6.28875L0.812489 4.875C0.812489 4.01305 1.1549 3.1864 1.76439 2.5769C2.37388 1.96741 3.20053 1.625 4.06249 1.625H10.0295C10.8914 1.62518 11.7179 1.96771 12.3272 2.57725L13.6727 3.92275C14.2821 4.53229 15.1086 4.87482 15.9705 4.875H22.4412C22.8929 4.87495 23.3395 4.96903 23.7528 5.15124C24.166 5.33344 24.5367 5.59977 24.8413 5.93323C25.1459 6.2667 25.3776 6.65998 25.5217 7.088C25.6658 7.51601 25.7191 7.96936 25.6782 8.41913L24.6431 19.7941C24.5697 20.6016 24.1972 21.3525 23.5986 21.8994C23 22.4463 22.2186 22.7497 21.4077 22.75H4.59224C3.78142 22.7497 3.00001 22.4463 2.40141 21.8994C1.8028 21.3525 1.43024 20.6016 1.35686 19.7941L0.321739 8.41913C0.252491 7.6664 0.449129 6.91319 0.877489 6.29038V6.28875ZM3.55874 6.5C3.333 6.49999 3.10974 6.54701 2.90318 6.63806C2.69663 6.72911 2.51131 6.8622 2.35903 7.02884C2.20676 7.19549 2.09088 7.39203 2.01877 7.60594C1.94667 7.81984 1.91992 8.04643 1.94024 8.27125L2.97536 19.6462C3.01185 20.05 3.19793 20.4255 3.49708 20.6991C3.79623 20.9727 4.18684 21.1246 4.59224 21.125H21.4077C21.8131 21.1246 22.2037 20.9727 22.5029 20.6991C22.802 20.4255 22.9881 20.05 23.0246 19.6462L24.0597 8.27125C24.0801 8.04643 24.0533 7.81984 23.9812 7.60594C23.9091 7.39203 23.7932 7.19549 23.6409 7.02884C23.4887 6.8622 23.3033 6.72911 23.0968 6.63806C22.8902 6.54701 22.667 6.49999 22.4412 6.5H3.55874ZM11.18 3.72613C11.0289 3.57503 10.8496 3.4552 10.6522 3.3735C10.4547 3.2918 10.2431 3.24983 10.0295 3.25H4.06249C3.63681 3.24992 3.22809 3.41688 2.92422 3.71498C2.62035 4.01308 2.44558 4.41852 2.43749 4.84412L2.44724 5.07C2.79499 4.94325 3.16874 4.875 3.55874 4.875H12.3272L11.18 3.72613Z" fill="#606F9F"/>
                        </svg>