<svg id="files-svg" xmlns="http://www.w3.org/2000/svg" width="26" height="31" viewBox="0 0 26 31" fill="none">
    <g clip-path="url(#clip0_3_85)">
        <path d="M13.5333 7.02681L13.5334 7.02686L19.9588 12.7727L19.9589 12.7728C20.1852 12.975 20.2999 13.2366 20.3 13.4958C20.3 13.4959 20.3 13.4959 20.3 13.496V27.9C20.3 28.5704 20.0027 29.2263 19.4513 29.7193C18.8982 30.214 18.1371 30.5 17.3333 30.5H3.46667C2.66293 30.5 1.90183 30.214 1.34866 29.7193C0.797316 29.2263 0.5 28.5704 0.5 27.9V9.3C0.5 8.62962 0.797316 7.9737 1.34866 7.48068C1.90183 6.98602 2.66293 6.7 3.46667 6.7H12.6411C12.6411 6.7 12.6412 6.7 12.6412 6.7C12.9852 6.70009 13.3053 6.82284 13.5333 7.02681ZM13.3333 8.15228L12.5 7.40713V8.525V11.625C12.5 12.1879 12.7505 12.7147 13.1744 13.0937C13.5964 13.4711 14.1579 13.675 14.7333 13.675H18.2H19.5092L18.5333 12.8023L13.3333 8.15228Z" stroke="#606F9F" stroke-width="2"/>
        <path d="M18.7333 0.826814L18.7334 0.826864L25.1589 6.57271L25.1589 6.57276C25.3852 6.77503 25.4999 7.03661 25.5 7.29585C25.5 7.29589 25.5 7.29593 25.5 7.29597V21.7C25.5 22.3704 25.2027 23.0263 24.6514 23.5193C24.0982 24.014 23.3371 24.3 22.5333 24.3H8.66668C7.86295 24.3 7.10184 24.014 6.54867 23.5193C5.99733 23.0263 5.70001 22.3704 5.70001 21.7V3.1C5.70001 2.42962 5.99733 1.77371 6.54867 1.28068C7.10184 0.78602 7.86295 0.5 8.66668 0.5H17.8411C17.8411 0.5 17.8412 0.5 17.8412 0.5C18.1852 0.500088 18.5053 0.622842 18.7333 0.826814ZM18.5333 1.95229L17.7 1.20713V2.325V5.425C17.7 5.98788 17.9506 6.51471 18.3744 6.89373C18.7964 7.27111 19.358 7.475 19.9333 7.475H23.4H24.7092L23.7333 6.60229L18.5333 1.95229Z" fill="#343746" stroke="#606F9F" stroke-width="2"/>
    </g>
    <defs>
        <clipPath id="clip0_3_85">
            <rect width="26" height="31" fill="#606F9F"/>
        </clipPath>
    </defs>
</svg>