                        <svg xmlns="http://www.w3.org/2000/svg" width="26" height="26" viewBox="0 0 26 26" fill="none">
                            <g clip-path="url(#clip0_3_90)">
                            <path d="M6.91868 16.8089C5.3452 14.6618 4.64045 11.9997 4.94543 9.35526C5.25041 6.71083 6.54263 4.27906 8.56356 2.54647C10.5845 0.813885 13.1851 -0.0917556 15.8451 0.0107383C18.5051 0.113232 21.0283 1.2163 22.9099 3.09926C24.7915 4.98222 25.8927 7.50621 25.9933 10.1663C26.0939 12.8263 25.1864 15.4263 23.4524 17.446C21.7184 19.4656 19.2857 20.7561 16.641 21.0592C13.9964 21.3623 11.3348 20.6557 9.1888 19.0806H9.19043C9.14168 19.1456 9.08968 19.2074 9.03118 19.2675L2.77493 25.5238C2.47023 25.8287 2.05688 26.0001 1.62581 26.0002C1.19475 26.0004 0.781281 25.8293 0.476364 25.5246C0.171448 25.2199 6.10352e-05 24.8065 -9.15527e-05 24.3755C-0.000244141 23.9444 0.170851 23.5309 0.475552 23.226L6.7318 16.9698C6.7899 16.911 6.85237 16.8583 6.91868 16.8089ZM6.49943 10.5624C6.49943 11.7361 6.7306 12.8983 7.17975 13.9826C7.6289 15.067 8.28724 16.0522 9.11716 16.8822C9.94708 17.7121 10.9323 18.3704 12.0167 18.8196C13.101 19.2687 14.2632 19.4999 15.4369 19.4999C16.6106 19.4999 17.7728 19.2687 18.8572 18.8196C19.9415 18.3704 20.9268 17.7121 21.7567 16.8822C22.5866 16.0522 23.2449 15.067 23.6941 13.9826C24.1433 12.8983 24.3744 11.7361 24.3744 10.5624C24.3744 8.19202 23.4328 5.91873 21.7567 4.24262C20.0806 2.56652 17.8073 1.62489 15.4369 1.62489C13.0666 1.62489 10.7933 2.56652 9.11716 4.24262C7.44105 5.91873 6.49943 8.19202 6.49943 10.5624Z" fill="#606F9F"/>
                            </g>
                            <defs>
                            <clipPath id="clip0_3_90">
                                <rect width="26" height="26" fill="#606F9F" transform="matrix(-1 0 0 1 26 0)"/>
                            </clipPath>
                            </defs>
                        </svg>