                            <svg id="world-svg" xmlns="http://www.w3.org/2000/svg" width="26" height="26" viewBox="0 0 26 26" fill="none">
                                <g clip-path="url(#clip0_2_34)">
                                <path d="M13 0C9.55219 0 6.24558 1.36964 3.80761 3.80761C1.36964 6.24558 0 9.55219 0 13C0 16.4478 1.36964 19.7544 3.80761 22.1924C6.24558 24.6304 9.55219 26 13 26C16.4478 26 19.7544 24.6304 22.1924 22.1924C24.6304 19.7544 26 16.4478 26 13C26 9.55219 24.6304 6.24558 22.1924 3.80761C19.7544 1.36964 16.4478 0 13 0ZM3.315 7.02975C3.84312 9.18937 7.4295 11.1572 9.35513 12.2135C10.1351 12.6409 10.6438 12.9187 10.5625 13C10.4325 13.13 10.2992 13.2568 10.1692 13.3802C9.49325 14.0238 8.89038 14.5974 8.9375 15.4375C8.99438 16.4678 9.94175 16.7765 10.9103 17.0901C11.8479 17.3956 12.8083 17.7076 13 18.6875C13.1333 19.3651 12.8781 20.293 12.6425 21.1575C12.2931 22.4283 11.9827 23.5625 13 23.5625C15.4375 22.75 19.1717 18.3853 19.5 15.4375C19.7243 13.4176 16.25 12.1875 13.8125 11.375C13.0358 11.115 12.5856 11.5066 12.2038 11.8365C11.9243 12.0802 11.6805 12.2899 11.375 12.1875C10.6519 11.947 7.3125 8.9375 8.9375 8.125C10.205 7.49125 10.4845 7.84713 10.9314 8.42075C11.0581 8.58162 11.1962 8.75875 11.375 8.9375C12.3646 9.4315 12.4508 8.723 12.5499 7.90887C12.6132 7.38563 12.6815 6.8185 13 6.5C13.7052 5.79475 15.0556 5.21463 16.2955 4.68C17.4525 4.18275 18.5136 3.72613 18.8614 3.25C20.7939 4.41209 22.3374 6.12233 23.2958 8.1635C24.2542 10.2047 24.5844 12.4847 24.2443 14.7138C23.9042 16.943 22.9092 19.0209 21.3856 20.6834C19.8621 22.3458 17.8789 23.518 15.6878 24.051C13.4967 24.5839 11.1966 24.4536 9.07971 23.6765C6.96283 22.8995 5.12467 21.5108 3.7987 19.6869C2.47274 17.8629 1.71881 15.686 1.63269 13.4327C1.54656 11.1793 2.13213 8.94959 3.315 7.02975Z" fill="#6272A4"/>
                                </g>
                                <defs>
                                <clipPath id="clip0_2_34">
                                    <rect width="26" height="26" fill="white"/>
                                </clipPath>
                                </defs>
                            </svg>