<svg xmlns="http://www.w3.org/2000/svg" width="21" height="20" viewBox="0 0 21 20" fill="none">
  <path d="M3.68153 17.9688L2.09503 0H19.5465L17.96 17.9688L10.8014 20" fill="#E34F26"/>
  <path d="M10.8401 18.4375L16.6057 16.8359L17.96 1.44531H10.8401" fill="#EF652A"/>
  <path d="M10.8401 8.125H7.938L7.74453 5.85938H10.8401V3.67188H10.8014H5.34543L5.38412 4.25781L5.92586 10.3516H10.8401V8.125ZM10.8401 13.8672H10.8014L8.36365 13.2031L8.20887 11.4453H7.04801H6.04194L6.31281 14.9219L10.8014 16.1719H10.8401V13.8672Z" fill="#21222C"/>
  <path d="M10.8014 8.125V10.3516H13.5101L13.2392 13.2031L10.8014 13.8672V16.1719L15.2901 14.9219L15.3288 14.5312L15.8318 8.71094L15.9092 8.125H15.2901H10.8014ZM10.8014 3.67188V5.03906V5.85938H16.1027L16.1414 5.39062L16.2574 4.25781L16.2961 3.67188H10.8014Z" fill="#21222C"/>
</svg>