<svg width="111" height="81" viewBox="0 0 111 81" fill="none" xmlns="http://www.w3.org/2000/svg">
<g clip-path="url(#clip0_62_33)">
<mask id="mask0_62_33" style="mask-type:luminance" maskUnits="userSpaceOnUse" x="1" y="2" width="109" height="77">
<path d="M1.56079 40.5C1.56079 61.7012 25.7107 78.8884 55.5 78.8884C85.2892 78.8884 109.439 61.7012 109.439 40.5C109.439 19.2991 85.2892 2.11161 55.5 2.11161C25.7107 2.11161 1.56079 19.2991 1.56079 40.5Z" fill="white"/>
</mask>
<g mask="url(#mask0_62_33)">
<path d="M1.56079 40.5C1.56079 61.7012 25.7107 78.8884 55.5 78.8884C85.2892 78.8884 109.439 61.7012 109.439 40.5C109.439 19.2991 85.2892 2.11161 55.5 2.11161C25.7107 2.11161 1.56079 19.2991 1.56079 40.5Z" fill="url(#paint0_radial_62_33)"/>
</g>
<mask id="mask1_62_33" style="mask-type:luminance" maskUnits="userSpaceOnUse" x="-1" y="-3" width="113" height="87">
<path d="M-0.686768 -2.25968H111.686V83.2596H-0.686768V-2.25968Z" fill="white"/>
</mask>
<g mask="url(#mask1_62_33)">
<path d="M55.4999 76.0382C84.1256 76.0382 107.332 60.1271 107.332 40.4999C107.332 20.873 84.1256 4.96162 55.4999 4.96162C26.8742 4.96162 3.66772 20.873 3.66772 40.4999C3.66772 60.1271 26.8742 76.0382 55.4999 76.0382Z" fill="#777BB3"/>
</g>
<mask id="mask2_62_33" style="mask-type:luminance" maskUnits="userSpaceOnUse" x="-1" y="-3" width="113" height="87">
<path d="M-0.686768 -2.25968H111.686V83.2596H-0.686768V-2.25968Z" fill="white"/>
</mask>
<g mask="url(#mask2_62_33)">
<path d="M30.8663 44.9062C33.2201 44.9062 34.9772 44.3189 36.0891 43.1612C37.189 42.0154 37.9487 40.0303 38.3469 37.2612C38.7181 34.6729 38.5767 32.8656 37.9267 31.8904C37.262 30.8942 35.8249 30.389 33.6555 30.389H29.8939L27.8086 44.9062H30.8663ZM18.5631 62.7887C18.3885 62.7887 18.2227 62.6831 18.1117 62.5005C18.0005 62.3181 17.9554 62.0779 17.9888 61.8459L23.5154 23.3751C23.5688 23.0032 23.8098 22.7345 24.0899 22.7345H36.0011C39.7445 22.7345 42.5308 24.1097 44.2822 26.8223C46.0429 29.5491 46.5866 33.3608 45.8981 38.1512C45.618 40.1028 45.1361 41.9154 44.466 43.5381C43.795 45.1627 42.9083 46.6659 41.8301 48.0068C40.5393 49.6412 39.0785 50.8263 37.492 51.5236C35.9307 52.2118 33.9255 52.5607 31.5323 52.5607H26.7092L25.3319 62.1478C25.2784 62.52 25.0377 62.7887 24.7575 62.7887H18.5631Z" fill="black"/>
<path d="M30.3765 31.1808H33.6556C36.2739 31.1808 37.1835 31.9581 37.4925 32.4213C38.0052 33.1905 38.102 34.8122 37.7724 37.1109C37.4022 39.6844 36.7158 41.5091 35.7322 42.5337C34.7251 43.5826 33.0879 44.1142 30.8664 44.1142H28.5186L30.3765 31.1808ZM36.0012 21.9426H24.0898C23.5295 21.9426 23.0478 22.48 22.9409 23.224L17.4144 61.6948C17.3476 62.1591 17.4378 62.6392 17.66 63.0042C17.8824 63.3693 18.2136 63.5804 18.5633 63.5804H24.7574C25.3179 63.5804 25.7996 63.043 25.9065 62.299L27.1918 53.3524H31.5324C33.9871 53.3524 36.0535 52.9903 37.6737 52.2763C39.34 51.5439 40.8731 50.302 42.2299 48.5853C43.3521 47.1884 44.2764 45.6206 44.9768 43.9247C45.6774 42.2283 46.1807 40.3366 46.4728 38.3021C47.1976 33.2596 46.6088 29.2217 44.723 26.3014C42.8556 23.4091 39.921 21.9426 36.0012 21.9426ZM27.0985 45.6979H30.8664C33.3637 45.6979 35.224 45.0616 36.4462 43.7885C37.6687 42.5152 38.4931 40.3902 38.9215 37.4123C39.3314 34.5532 39.1447 32.5356 38.3614 31.3602C37.5772 30.1849 36.0088 29.5971 33.6556 29.5971H29.4116L27.0985 45.6979ZM36.0012 23.5263C39.5845 23.5263 42.1985 24.7985 43.8416 27.3432C45.4845 29.8879 45.9792 33.4399 45.3237 38.0001C45.0539 39.8787 44.5976 41.5962 43.9551 43.1521C43.3119 44.7092 42.472 46.1329 41.4341 47.4239C40.1973 48.9899 38.8232 50.1059 37.3112 50.7705C35.7993 51.437 33.8735 51.7687 31.5324 51.7687H26.2267L24.7574 61.9968H18.5633L24.0898 23.5263H36.0012Z" fill="white"/>
<path d="M60.1007 52.5607C59.9259 52.5607 59.7602 52.4551 59.6492 52.2724C59.5378 52.09 59.4928 51.8501 59.5261 51.6178L61.9708 34.5961C62.2034 32.9773 62.146 31.8154 61.8095 31.3244C61.6035 31.0243 60.9846 30.521 59.1549 30.521H54.7259L51.6522 51.9198C51.5987 52.292 51.3578 52.5607 51.0776 52.5607H44.9322C44.7574 52.5607 44.5918 52.4551 44.4806 52.2724C44.3694 52.09 44.3243 51.8499 44.3577 51.6178L49.8843 13.1471C49.9377 12.7752 50.1787 12.5065 50.4588 12.5065H56.6042C56.779 12.5065 56.9447 12.6121 57.0559 12.7944C57.1671 12.9771 57.2121 13.217 57.1788 13.4493L55.8451 22.7345H60.6097C64.2394 22.7345 66.7007 23.6002 68.1342 25.3814C69.5954 27.1984 70.0514 30.1037 69.4895 34.0175L66.9182 51.9198C66.8647 52.292 66.624 52.5607 66.3436 52.5607H60.1007Z" fill="black"/>
<path d="M56.6043 11.7145H50.4589C49.8984 11.7145 49.4167 12.2519 49.3098 12.996L43.7832 51.4668C43.7165 51.9311 43.8067 52.4112 44.0291 52.7762C44.2515 53.1413 44.5827 53.3524 44.9323 53.3524H51.0778C51.6381 53.3524 52.1199 52.815 52.2268 52.0709L55.2084 31.3127H59.155C60.9816 31.3127 61.365 31.8406 61.3804 31.8633C61.4912 32.0246 61.6369 32.7716 61.3964 34.445L58.9517 51.4668C58.885 51.9311 58.9751 52.4112 59.1975 52.7762C59.4199 53.1413 59.7512 53.3524 60.1008 53.3524H66.3437C66.904 53.3524 67.3859 52.815 67.4928 52.0709L70.064 34.1686C70.6674 29.9663 70.1512 26.814 68.5303 24.7985C66.9836 22.8767 64.3928 21.9425 60.6098 21.9425H56.555L57.7534 13.6004C57.82 13.1362 57.73 12.6558 57.5076 12.291C57.2852 11.926 56.9539 11.7145 56.6043 11.7145ZM56.6043 13.2982L55.1351 23.5262H60.6098C64.0545 23.5262 66.4306 24.3397 67.7383 25.9646C69.046 27.5905 69.4377 30.225 68.9151 33.8667L66.3437 51.7687H60.1008L62.5455 34.7472C62.8237 32.8109 62.7215 31.4901 62.2384 30.7859C61.7552 30.0817 60.7272 29.729 59.155 29.729H54.2433L51.0778 51.7687H44.9323L50.4589 13.2982H56.6043Z" fill="white"/>
<path d="M79.2132 44.9062C81.567 44.9062 83.3241 44.3189 84.436 43.1612C85.5359 42.0157 86.2956 40.0305 86.694 37.2612C87.0652 34.6729 86.9238 32.8656 86.2736 31.8904C85.6089 30.8942 84.1718 30.389 82.0024 30.389H78.2408L76.1555 44.9062H79.2132ZM66.9102 62.7887C66.7356 62.7887 66.5698 62.6831 66.4588 62.5005C66.3476 62.3181 66.3023 62.0779 66.3357 61.8459L71.8623 23.3751C71.9159 23.0032 72.1567 22.7345 72.437 22.7345H84.348C88.0916 22.7345 90.8777 24.1097 92.6293 26.8223C94.39 29.5489 94.9335 33.3605 94.2452 38.1512C93.9647 40.1028 93.483 41.9154 92.8129 43.5381C92.1419 45.1627 91.2552 46.6659 90.177 48.0068C88.8862 49.6412 87.4254 50.8263 85.8389 51.5236C84.2776 52.2118 82.2724 52.5607 79.8792 52.5607H75.0559L73.6792 62.1478C73.6255 62.52 73.3848 62.7887 73.1044 62.7887H66.9102Z" fill="black"/>
<path d="M78.7235 31.1808H82.0026C84.6209 31.1808 85.5304 31.9581 85.8395 32.4213C86.3524 33.1905 86.4491 34.8122 86.1194 37.1106C85.7491 39.6844 85.0626 41.5091 84.0791 42.5337C83.0721 43.5826 81.4349 44.1142 79.2133 44.1142H76.8658L78.7235 31.1808ZM84.3482 21.9426H72.437C71.8767 21.9426 71.395 22.48 71.2881 23.224L65.7615 61.6948C65.6948 62.1591 65.7849 62.6392 66.0071 63.0042C66.2295 63.3693 66.5608 63.5804 66.9104 63.5804H73.1046C73.6649 63.5804 74.1468 63.043 74.2537 62.299L75.5388 53.3524H79.8794C82.334 53.3524 84.4005 52.9903 86.0207 52.2763C87.687 51.5439 89.2204 50.3017 90.5773 48.5847C91.6995 47.1882 92.6234 45.6206 93.3238 43.9247C94.0244 42.2283 94.5277 40.3366 94.8198 38.3021C95.5445 33.2594 94.9557 29.2215 93.07 26.3011C91.2026 23.4091 88.2682 21.9426 84.3482 21.9426ZM75.4457 45.6979H79.2133C81.7107 45.6979 83.5709 45.0616 84.7932 43.7885C86.0158 42.5152 86.8401 40.3902 87.2685 37.4123C87.6786 34.5532 87.4919 32.5356 86.7084 31.3602C85.9241 30.1849 84.3558 29.5971 82.0026 29.5971H77.7585L75.4457 45.6979ZM84.3482 23.5263C87.9314 23.5263 90.5455 24.7985 92.1886 27.3432C93.8316 29.8879 94.3262 33.4399 93.6707 38.0001C93.4009 39.8787 92.9445 41.5962 92.3021 43.1521C91.6589 44.7092 90.819 46.1329 89.7811 47.4239C88.5442 48.9899 87.1702 50.1059 85.6582 50.7705C84.1463 51.437 82.2205 51.7687 79.8794 51.7687H74.5737L73.1046 61.9968H66.9104L72.437 23.5263H84.3482Z" fill="white"/>
</g>
</g>
<defs>
<radialGradient id="paint0_radial_62_33" cx="0" cy="0" r="1" gradientUnits="userSpaceOnUse" gradientTransform="translate(33.9461 15.6078) scale(70.8299 95.8286)">
<stop stop-color="#AEB2D5"/>
<stop offset="0.3" stop-color="#AEB2D5"/>
<stop offset="0.75" stop-color="#484C89"/>
<stop offset="1" stop-color="#484C89"/>
</radialGradient>
<clipPath id="clip0_62_33">
<rect width="111" height="81" fill="white"/>
</clipPath>
</defs>
</svg>
