<svg width="111" height="111" viewBox="0 0 111 111" fill="none" xmlns="http://www.w3.org/2000/svg">
<g clip-path="url(#clip0_58_5)">
<path d="M54.9188 0.00087965C50.3351 0.0212596 45.9578 0.395329 42.1063 1.04749C30.7601 2.96559 28.7 6.98034 28.7 14.3842V24.1625H55.5125V27.4219H28.7H18.6375C10.8451 27.4219 4.02178 31.9038 1.88754 40.4298C-0.574285 50.2025 -0.68348 56.3009 1.88754 66.5052C3.79346 74.1009 8.34508 79.513 16.1375 79.513H25.3563V67.791C25.3563 59.3226 33.0134 51.8527 42.1063 51.8527H68.8875C76.3425 51.8527 82.2938 45.9791 82.2938 38.815V14.3842C82.2938 7.4311 76.1638 2.20794 68.8875 1.04749C64.2815 0.313809 59.5024 -0.0195006 54.9188 0.00087965ZM40.4188 7.86537C43.1883 7.86537 45.45 10.0649 45.45 12.7695C45.45 15.4644 43.1883 17.6437 40.4188 17.6437C37.6393 17.6437 35.3875 15.4644 35.3875 12.7695C35.3875 10.0649 37.6393 7.86537 40.4188 7.86537Z" fill="url(#paint0_linear_58_5)"/>
<path d="M85.6375 27.4219V38.815C85.6375 47.6479 77.8116 55.0822 68.8875 55.0822H42.1062C34.7704 55.0822 28.7 61.0901 28.7 68.1199V92.5507C28.7 99.5038 35.0185 103.594 42.1062 105.588C50.5935 107.976 58.7324 108.408 68.8875 105.588C75.6376 103.718 82.2937 99.9546 82.2937 92.5507V82.7724H55.5125V79.513H82.2937H95.7C103.492 79.513 106.396 74.3119 109.106 66.5052C111.906 58.4683 111.786 50.7396 109.106 40.4297C107.18 33.0067 103.502 27.4219 95.7 27.4219H85.6375ZM70.575 89.2913C73.3544 89.2913 75.6062 91.4705 75.6062 94.1655C75.6062 96.87 73.3544 99.0696 70.575 99.0696C67.8054 99.0696 65.5437 96.87 65.5437 94.1655C65.5437 91.4705 67.8054 89.2913 70.575 89.2913Z" fill="url(#paint1_linear_58_5)"/>
</g>
<defs>
<linearGradient id="paint0_linear_58_5" x1="-3.33885e-07" y1="-2.77535e-07" x2="59.5202" y2="53.0041" gradientUnits="userSpaceOnUse">
<stop stop-color="#5A9FD4"/>
<stop offset="1" stop-color="#306998"/>
</linearGradient>
<linearGradient id="paint1_linear_58_5" x1="69.9306" y1="93.3434" x2="49.0255" y2="62.7295" gradientUnits="userSpaceOnUse">
<stop stop-color="#FFD43B"/>
<stop offset="1" stop-color="#FFE873"/>
</linearGradient>
<clipPath id="clip0_58_5">
<rect width="111" height="111" fill="white"/>
</clipPath>
</defs>
</svg>
