<svg width="99" height="99" viewBox="0 0 99 99" fill="none" xmlns="http://www.w3.org/2000/svg">
<g clip-path="url(#clip0_94_191)">
<mask id="mask0_94_191" style="mask-type:luminance" maskUnits="userSpaceOnUse" x="0" y="0" width="99" height="99">
<path d="M99 0H0V99H99V0Z" fill="white"/>
</mask>
<g mask="url(#mask0_94_191)">
<path d="M0 49.3849C0 22.1023 22.1023 0 49.3849 0C76.6674 0 98.7698 22.1023 98.7698 49.3849C98.7698 76.6674 76.6674 98.7698 49.3849 98.7698C22.1023 98.7122 0 76.6099 0 49.3849Z" fill="#5865F2"/>
<path d="M71.6022 29.2971C67.4005 27.3977 63.0261 26.0163 58.479 25.2681C57.9034 26.3041 57.2702 27.628 56.8098 28.7216C51.9749 27.9733 47.0825 27.9733 42.2476 28.7216C41.7296 27.5128 41.154 26.3617 40.5208 25.2681C35.9737 26.0163 31.5418 27.3977 27.3976 29.3547C19.1092 41.7297 16.8644 53.7593 17.958 65.6739C22.8505 69.3 28.2609 72.0628 34.0743 73.7896C35.3982 72.0053 36.5493 70.1634 37.5278 68.2064C35.6284 67.5157 33.8441 66.6524 32.1173 65.6163C32.5778 65.271 32.9807 64.9256 33.4412 64.5803C43.629 69.4152 55.486 69.4152 65.6737 64.5803C66.1342 64.9256 66.5371 65.271 66.9976 65.6163C65.2708 66.6524 63.429 67.5157 61.5295 68.2064C62.508 70.1634 63.6592 72.0053 64.983 73.7896C70.7964 72.0053 76.2644 69.3 81.0993 65.6739C82.3656 51.8599 78.797 39.8878 71.6022 29.2971ZM38.9092 58.3064C35.7435 58.3064 33.2109 55.4285 33.2109 51.9175C33.2109 48.4064 35.7435 45.471 38.9092 45.471C42.1325 45.471 44.665 48.3489 44.665 51.9175C44.6075 55.4285 42.1325 58.3064 38.9092 58.3064ZM60.0906 58.3064C56.9249 58.3064 54.3923 55.4285 54.3923 51.9175C54.3923 48.4064 56.9249 45.471 60.0906 45.471C63.3139 45.471 65.8464 48.3489 65.7889 51.9175C65.7313 55.4861 63.2563 58.3064 60.0906 58.3064Z" fill="white"/>
</g>
</g>
<defs>
<clipPath id="clip0_94_191">
<rect width="99" height="99" fill="white"/>
</clipPath>
</defs>
</svg>
