<svg width="99" height="99" viewBox="0 0 99 99" fill="none" xmlns="http://www.w3.org/2000/svg">
<path fill-rule="evenodd" clip-rule="evenodd" d="M49.541 0C22.1461 0 0 21.9999 0 49.2168C0 70.9727 14.1898 89.3886 33.8747 95.9066C36.3358 96.3966 37.2374 94.8476 37.2374 93.5446C37.2374 92.4036 37.1562 88.4926 37.1562 84.4177C23.3751 87.3516 20.5053 78.5507 20.5053 78.5507C18.2906 72.8467 15.0091 71.3807 15.0091 71.3807C10.4986 68.3657 15.3377 68.3657 15.3377 68.3657C20.3411 68.6917 22.9665 73.4177 22.9665 73.4177C27.3949 80.9137 34.5308 78.7957 37.4016 77.4917C37.8113 74.3137 39.1245 72.1137 40.5189 70.8917C29.5274 69.7507 17.9631 65.5137 17.9631 46.6088C17.9631 41.2308 19.9304 36.8308 23.0476 33.4089C22.5558 32.1869 20.8329 27.1339 23.5404 20.3709C23.5404 20.3709 27.7234 19.0669 37.1552 25.4229C41.1933 24.3456 45.3577 23.7975 49.541 23.7929C53.724 23.7929 57.9881 24.3639 61.9257 25.4229C71.3585 19.0669 75.5415 20.3709 75.5415 20.3709C78.249 27.1339 76.5251 32.1869 76.0333 33.4089C79.2327 36.8308 81.1188 41.2308 81.1188 46.6088C81.1188 65.5137 69.5545 69.6687 58.4809 70.8917C60.286 72.4397 61.8436 75.3727 61.8436 80.0177C61.8436 86.6176 61.7624 91.9146 61.7624 93.5436C61.7624 94.8476 62.6649 96.3966 65.1251 95.9076C84.81 89.3876 98.9998 70.9727 98.9998 49.2168C99.0809 21.9999 76.8537 0 49.541 0Z" fill="#fff"/>
</svg>
