<svg width="99" height="70" viewBox="0 0 99 70" fill="none" xmlns="http://www.w3.org/2000/svg">
<g clip-path="url(#clip0_94_173)">
<path d="M6.75 70H22.5V33.9394L0 18.0303V63.6363C0 67.1575 3.02625 70 6.75 70Z" fill="#4285F4"/>
<path d="M76.5 70H92.25C95.985 70 99 67.1469 99 63.6363V18.0303L76.5 33.9394" fill="#34A853"/>
<path d="M76.5 6.36362V33.9394L99 18.0303V9.54544C99 1.67574 89.4712 -2.81062 82.8 1.90908" fill="#FBBC04"/>
<path d="M22.5 33.9393V6.36353L49.5 25.4544L76.5 6.36353V33.9393L49.5 53.0302" fill="#EA4335"/>
<path d="M0 9.54544V18.0303L22.5 33.9394V6.36362L16.2 1.90908C9.5175 -2.81062 0 1.67574 0 9.54544Z" fill="#C5221F"/>
</g>
<defs>
<clipPath id="clip0_94_173">
<rect width="99" height="70" fill="white"/>
</clipPath>
</defs>
</svg>
