<svg width="76" height="76" viewBox="0 0 76 76" fill="none" xmlns="http://www.w3.org/2000/svg">
<g clip-path="url(#clip0_94_179)">
<path d="M-0.116699 5.24542C-0.116699 2.22969 2.39001 -0.21651 5.48236 -0.21651H70.0515C73.1438 -0.21651 75.6506 2.22969 75.6506 5.24542V70.5696C75.6506 73.5863 73.1438 76.0315 70.0515 76.0315H5.48236C2.39001 76.0315 -0.116699 73.5863 -0.116699 70.5696V5.24542Z" fill="#006699"/>
<path fill-rule="evenodd" clip-rule="evenodd" d="M22.8507 63.6111V29.1808H11.4067V63.6111H22.8507ZM17.1287 24.48C21.1194 24.48 23.6033 21.8361 23.6033 18.5321C23.5289 15.1536 21.1194 12.5831 17.2044 12.5831C13.2897 12.5831 10.7302 15.1536 10.7302 18.5321C10.7302 21.8361 13.2136 24.48 17.0541 24.48H17.1287Z" fill="white"/>
<path fill-rule="evenodd" clip-rule="evenodd" d="M29.1831 63.6111H40.627V44.3838C40.627 43.3548 40.7013 42.3268 41.0035 41.5912C41.8308 39.5352 43.7138 37.4058 46.8752 37.4058C51.0163 37.4058 52.6728 40.5632 52.6728 45.1917V63.6111H64.1157V43.8693C64.1157 33.2939 58.4699 28.3729 50.9407 28.3729C44.767 28.3729 42.0567 31.8237 40.5509 34.1741H40.6273V29.1808H29.1834C29.3336 32.4115 29.1831 63.6111 29.1831 63.6111Z" fill="white"/>
</g>
<defs>
<clipPath id="clip0_94_179">
<rect width="76" height="76" fill="white"/>
</clipPath>
</defs>
</svg>
